<?xml version="1.0" encoding="UTF-8"?>
<svg version="1.1" xmlns="http://www.w3.org/2000/svg" width="64" height="64">
<path d="M0 0 C21.12 0 42.24 0 64 0 C64 21.12 64 42.24 64 64 C42.88 64 21.76 64 0 64 C0 42.88 0 21.76 0 0 Z " fill="#8E553B" transform="translate(0,0)"/>
<path d="M0 0 C15.84 0 31.68 0 48 0 C48 10.56 48 21.12 48 32 C45.36 32 42.72 32 40 32 C40 22.76 40 13.52 40 4 C38.68 4 37.36 4 36 4 C36 13.24 36 22.48 36 32 C34.68 32 33.36 32 32 32 C32 22.76 32 13.52 32 4 C30.68 4 29.36 4 28 4 C28 13.24 28 22.48 28 32 C26.68 32 25.36 32 24 32 C24 28.04 24 24.08 24 20 C22.68 20 21.36 20 20 20 C20 23.96 20 27.92 20 32 C18.68 32 17.36 32 16 32 C16 29.36 16 26.72 16 24 C14.68 24 13.36 24 12 24 C12 26.64 12 29.28 12 32 C10.68 32 9.36 32 8 32 C8 22.76 8 13.52 8 4 C6.68 4 5.36 4 4 4 C4 13.24 4 22.48 4 32 C2.68 32 1.36 32 0 32 C0 21.44 0 10.88 0 0 Z " fill="#4B4D4C" transform="translate(4,28)"/>
<path d="M0 0 C10.56 0 21.12 0 32 0 C32 5.28 32 10.56 32 16 C30.68 16 29.36 16 28 16 C28 18.64 28 21.28 28 24 C26.68 24 25.36 24 24 24 C24 21.36 24 18.72 24 16 C22.68 16 21.36 16 20 16 C20 18.64 20 21.28 20 24 C18.68 24 17.36 24 16 24 C16 21.36 16 18.72 16 16 C14.68 16 13.36 16 12 16 C12 18.64 12 21.28 12 24 C10.68 24 9.36 24 8 24 C8 21.36 8 18.72 8 16 C6.68 16 5.36 16 4 16 C4 14.68 4 13.36 4 12 C2.68 12 1.36 12 0 12 C0 8.04 0 4.08 0 0 Z " fill="#514C4A" transform="translate(20,0)"/>
<path d="M0 0 C2.64 0 5.28 0 8 0 C8 10.56 8 21.12 8 32 C5.36 32 2.72 32 0 32 C0 21.44 0 10.88 0 0 Z " fill="#4C4C4C" transform="translate(56,28)"/>
<path d="M0 0 C3.96 0 7.92 0 12 0 C12 7.92 12 15.84 12 24 C10.68 24 9.36 24 8 24 C8 21.36 8 18.72 8 16 C6.68 16 5.36 16 4 16 C4 18.64 4 21.28 4 24 C2.68 24 1.36 24 0 24 C0 16.08 0 8.16 0 0 Z " fill="#504C4A" transform="translate(4,0)"/>
<path d="M0 0 C1.32 0 2.64 0 4 0 C4 9.24 4 18.48 4 28 C2.68 28 1.36 28 0 28 C0 18.76 0 9.52 0 0 Z " fill="#D9A066" transform="translate(40,32)"/>
<path d="M0 0 C1.32 0 2.64 0 4 0 C4 9.24 4 18.48 4 28 C2.68 28 1.36 28 0 28 C0 18.76 0 9.52 0 0 Z " fill="#9BADB7" transform="translate(32,32)"/>
<path d="M0 0 C1.32 0 2.64 0 4 0 C4 6.6 4 13.2 4 20 C2.68 20 1.36 20 0 20 C0 13.4 0 6.8 0 0 Z " fill="#222034" transform="translate(16,32)"/>
<path d="M0 0 C1.32 0 2.64 0 4 0 C4 6.6 4 13.2 4 20 C2.68 20 1.36 20 0 20 C0 13.4 0 6.8 0 0 Z " fill="#EEC39A" transform="translate(8,32)"/>
<path d="M0 0 C2.64 0 5.28 0 8 0 C8 1.32 8 2.64 8 4 C6.68 4 5.36 4 4 4 C4 6.64 4 9.28 4 12 C2.68 12 1.36 12 0 12 C0 8.04 0 4.08 0 0 Z " fill="#4C4C4C" transform="translate(56,0)"/>
<path d="M0 0 C1.32 0 2.64 0 4 0 C4 3.96 4 7.92 4 12 C2.68 12 1.36 12 0 12 C0 8.04 0 4.08 0 0 Z " fill="#F3D7BB" transform="translate(24,48)"/>
<path d="M0 0 C1.32 0 2.64 0 4 0 C4 3.96 4 7.92 4 12 C2.68 12 1.36 12 0 12 C0 8.04 0 4.08 0 0 Z " fill="#BCDBCE" transform="translate(24,32)"/>
<path d="M0 0 C1.32 0 2.64 0 4 0 C4 2.64 4 5.28 4 8 C2.68 8 1.36 8 0 8 C0 5.36 0 2.72 0 0 Z " fill="#DF7126" transform="translate(40,52)"/>
<path d="M0 0 C1.32 0 2.64 0 4 0 C4 2.64 4 5.28 4 8 C2.68 8 1.36 8 0 8 C0 5.36 0 2.72 0 0 Z " fill="#FFFFFF" transform="translate(32,52)"/>
<path d="M0 0 C1.32 0 2.64 0 4 0 C4 2.64 4 5.28 4 8 C2.68 8 1.36 8 0 8 C0 5.36 0 2.72 0 0 Z " fill="#FFFFFF" transform="translate(16,52)"/>
<path d="M0 0 C1.32 0 2.64 0 4 0 C4 2.64 4 5.28 4 8 C2.68 8 1.36 8 0 8 C0 5.36 0 2.72 0 0 Z " fill="#AC3232" transform="translate(8,52)"/>
<path d="M0 0 C1.32 0 2.64 0 4 0 C4 2.64 4 5.28 4 8 C2.68 8 1.36 8 0 8 C0 5.36 0 2.72 0 0 Z " fill="#4C4C4C" transform="translate(56,16)"/>
<path d="M0 0 C1.32 0 2.64 0 4 0 C4 2.64 4 5.28 4 8 C2.68 8 1.36 8 0 8 C0 5.36 0 2.72 0 0 Z " fill="#4C4C4C" transform="translate(20,16)"/>
</svg>
